{
    "asset" : {
        "generator" : "Khronos glTF Blender I/O v1.2.75",
        "version" : "2.0"
    },
    "scene" : 0,
    "scenes" : [
        {
            "name" : "Scene",
            "nodes" : [
                0
            ]
        }
    ],
    "nodes" : [
        {
            "mesh" : 0,
            "name" : "Park Bench",
            "rotation" : [
                0,
                0.7071067690849304,
                0,
                0.7071067690849304
            ]
        }
    ],
    "materials" : [
        {
            "doubleSided" : true,
            "emissiveFactor" : [
                0,
                0,
                0
            ],
            "name" : "Wood",
            "pbrMetallicRoughness" : {
                "baseColorTexture" : {
                    "index" : 0,
                    "texCoord" : 0
                },
                "metallicFactor" : 0,
                "roughnessFactor" : 0.4000000059604645
            }
        }
    ],
    "meshes" : [
        {
            "name" : "Cube.008",
            "primitives" : [
                {
                    "attributes" : {
                        "POSITION" : 0,
                        "NORMAL" : 1,
                        "TEXCOORD_0" : 2
                    },
                    "indices" : 3,
                    "material" : 0
                }
            ]
        }
    ],
    "textures" : [
        {
            "source" : 0
        }
    ],
    "images" : [
        {
            "bufferView" : 4,
            "mimeType" : "image/jpeg",
            "name" : "weathered_brown_planks_diff_1k"
        }
    ],
    "accessors" : [
        {
            "bufferView" : 0,
            "componentType" : 5126,
            "count" : 554,
            "max" : [
                0.6680499911308289,
                1.2639262676239014,
                2.1131327152252197
            ],
            "min" : [
                -0.3114646077156067,
                0.008011788129806519,
                -2.1131327152252197
            ],
            "type" : "VEC3"
        },
        {
            "bufferView" : 1,
            "componentType" : 5126,
            "count" : 554,
            "type" : "VEC3"
        },
        {
            "bufferView" : 2,
            "componentType" : 5126,
            "count" : 554,
            "type" : "VEC2"
        },
        {
            "bufferView" : 3,
            "componentType" : 5123,
            "count" : 846,
            "type" : "SCALAR"
        }
    ],
    "bufferViews" : [
        {
            "buffer" : 0,
            "byteLength" : 6648,
            "byteOffset" : 0
        },
        {
            "buffer" : 0,
            "byteLength" : 6648,
            "byteOffset" : 6648
        },
        {
            "buffer" : 0,
            "byteLength" : 4432,
            "byteOffset" : 13296
        },
        {
            "buffer" : 0,
            "byteLength" : 1692,
            "byteOffset" : 17728
        },
        {
            "buffer" : 0,
            "byteLength" : 226049,
            "byteOffset" : 19420
        }
    ],
    "buffers" : [
        {
            "byteLength" : 245472,
            "uri" : "data:application/octet-stream;base64,"
        }
    ]
}
