{
    "asset" : {
        "generator" : "Khronos glTF Blender I/O v1.2.75",
        "version" : "2.0"
    },
    "scene" : 0,
    "scenes" : [
        {
            "name" : "Scene",
            "nodes" : [
                0
            ]
        }
    ],
    "nodes" : [
        {
            "mesh" : 0,
            "name" : "Piknik Bench"
        }
    ],
    "materials" : [
        {
            "doubleSided" : true,
            "emissiveFactor" : [
                0,
                0,
                0
            ],
            "name" : "Wood",
            "pbrMetallicRoughness" : {
                "baseColorTexture" : {
                    "index" : 0,
                    "texCoord" : 0
                },
                "metallicFactor" : 0,
                "roughnessFactor" : 0.4000000059604645
            }
        }
    ],
    "meshes" : [
        {
            "name" : "Cube",
            "primitives" : [
                {
                    "attributes" : {
                        "POSITION" : 0,
                        "NORMAL" : 1,
                        "TEXCOORD_0" : 2
                    },
                    "indices" : 3,
                    "material" : 0
                }
            ]
        }
    ],
    "textures" : [
        {
            "source" : 0
        }
    ],
    "images" : [
        {
            "bufferView" : 4,
            "mimeType" : "image/jpeg",
            "name" : "weathered_brown_planks_diff_1k"
        }
    ],
    "accessors" : [
        {
            "bufferView" : 0,
            "componentType" : 5126,
            "count" : 424,
            "max" : [
                1.2793515920639038,
                1.1464014053344727,
                1.9034464359283447
            ],
            "min" : [
                -1.2793515920639038,
                -0.004540681838989258,
                -1.9034464359283447
            ],
            "type" : "VEC3"
        },
        {
            "bufferView" : 1,
            "componentType" : 5126,
            "count" : 424,
            "type" : "VEC3"
        },
        {
            "bufferView" : 2,
            "componentType" : 5126,
            "count" : 424,
            "type" : "VEC2"
        },
        {
            "bufferView" : 3,
            "componentType" : 5123,
            "count" : 636,
            "type" : "SCALAR"
        }
    ],
    "bufferViews" : [
        {
            "buffer" : 0,
            "byteLength" : 5088,
            "byteOffset" : 0
        },
        {
            "buffer" : 0,
            "byteLength" : 5088,
            "byteOffset" : 5088
        },
        {
            "buffer" : 0,
            "byteLength" : 3392,
            "byteOffset" : 10176
        },
        {
            "buffer" : 0,
            "byteLength" : 1272,
            "byteOffset" : 13568
        },
        {
            "buffer" : 0,
            "byteLength" : 226049,
            "byteOffset" : 14840
        }
    ],
    "buffers" : [
        {
            "byteLength" : 240892,
            "uri" : "data:application/octet-stream;base64,"
        }
    ]
}
