{
    "asset" : {
        "generator" : "Khronos glTF Blender I/O v1.2.75",
        "version" : "2.0"
    },
    "scene" : 0,
    "scenes" : [
        {
            "name" : "Scene",
            "nodes" : [
                0
            ]
        }
    ],
    "nodes" : [
        {
            "mesh" : 0,
            "name" : "Swing set"
        }
    ],
    "materials" : [
        {
            "doubleSided" : true,
            "emissiveFactor" : [
                0,
                0,
                0
            ],
            "name" : "Material.002",
            "pbrMetallicRoughness" : {
                "baseColorTexture" : {
                    "index" : 0,
                    "texCoord" : 0
                },
                "metallicFactor" : 0,
                "roughnessFactor" : 0.8761467933654785
            }
        }
    ],
    "meshes" : [
        {
            "name" : "Cube.009",
            "primitives" : [
                {
                    "attributes" : {
                        "POSITION" : 0,
                        "NORMAL" : 1,
                        "TEXCOORD_0" : 2
                    },
                    "indices" : 3,
                    "material" : 0
                }
            ]
        }
    ],
    "textures" : [
        {
            "source" : 0
        }
    ],
    "images" : [
        {
            "bufferView" : 4,
            "mimeType" : "image/png",
            "name" : "Tyre"
        }
    ],
    "accessors" : [
        {
            "bufferView" : 0,
            "componentType" : 5126,
            "count" : 1600,
            "max" : [
                0.9723207950592041,
                3.5862324237823486,
                2.792255163192749
            ],
            "min" : [
                -0.9793363213539124,
                -0.22171808779239655,
                -2.792255163192749
            ],
            "type" : "VEC3"
        },
        {
            "bufferView" : 1,
            "componentType" : 5126,
            "count" : 1600,
            "type" : "VEC3"
        },
        {
            "bufferView" : 2,
            "componentType" : 5126,
            "count" : 1600,
            "type" : "VEC2"
        },
        {
            "bufferView" : 3,
            "componentType" : 5123,
            "count" : 2460,
            "type" : "SCALAR"
        }
    ],
    "bufferViews" : [
        {
            "buffer" : 0,
            "byteLength" : 19200,
            "byteOffset" : 0
        },
        {
            "buffer" : 0,
            "byteLength" : 19200,
            "byteOffset" : 19200
        },
        {
            "buffer" : 0,
            "byteLength" : 12800,
            "byteOffset" : 38400
        },
        {
            "buffer" : 0,
            "byteLength" : 4920,
            "byteOffset" : 51200
        },
        {
            "buffer" : 0,
            "byteLength" : 647488,
            "byteOffset" : 56120
        }
    ],
    "buffers" : [
        {
            "byteLength" : 703608,
            "uri" : "data:application/octet-stream;base64,"
        }
    ]
}
